<svg width="32" height="32" viewBox="0 0 32 32" fill="none" xmlns="http://www.w3.org/2000/svg">
  <rect width="32" height="32" rx="6" fill="url(#gradient)"/>

  <!-- Pie chart circle with segments -->
  <g transform="translate(16, 16)">
    <!-- Segment 1 (largest - 33%) -->
    <path d="M 0,-9 A 9,9 0 0,1 7.79,-4.5 L 0,0 Z" fill="white"/>
    <!-- Segment 2 (22%) -->
    <path d="M 7.79,-4.5 A 9,9 0 0,1 7.79,4.5 L 0,0 Z" fill="rgba(255,255,255,0.7)"/>
    <!-- Segment 3 (22%) -->
    <path d="M 7.79,4.5 A 9,9 0 0,1 -2.77,8.56 L 0,0 Z" fill="rgba(255,255,255,0.4)"/>
    <!-- Segment 4 (23%) -->
    <path d="M -2.77,8.56 A 9,9 0 0,1 0,-9 L 0,0 Z" fill="rgba(255,255,255,0.2)"/>

    <!-- Dividing lines -->
    <line x1="0" y1="0" x2="0" y2="-9" stroke="url(#gradient)" stroke-width="0.5"/>
    <line x1="0" y1="0" x2="7.79" y2="-4.5" stroke="url(#gradient)" stroke-width="0.5"/>
    <line x1="0" y1="0" x2="7.79" y2="4.5" stroke="url(#gradient)" stroke-width="0.5"/>
    <line x1="0" y1="0" x2="-2.77" y2="8.56" stroke="url(#gradient)" stroke-width="0.5"/>
  </g>

  <defs>
    <linearGradient id="gradient" x1="0" y1="0" x2="32" y2="32" gradientUnits="userSpaceOnUse">
      <stop offset="0%" stop-color="#6366f1"/>
      <stop offset="100%" stop-color="#8b5cf6"/>
    </linearGradient>
  </defs>
</svg>
